<svg xmlns="http://www.w3.org/2000/svg" viewBox="0 0 214 34" fill="#fff" role="img" aria-label="IMDITHER">
  <rect x="0" y="0" width="4" height="4" opacity="1"/>
  <rect x="5" y="0" width="4" height="4" opacity="0.993"/>
  <rect x="0" y="5" width="4" height="4" opacity="0.897"/>
  <rect x="5" y="5" width="4" height="4" opacity="0.89"/>
  <rect x="0" y="10" width="4" height="4" opacity="0.793"/>
  <rect x="5" y="10" width="4" height="4" opacity="0.786"/>
  <rect x="0" y="15" width="4" height="4" opacity="0.69"/>
  <rect x="5" y="15" width="4" height="4" opacity="0.683"/>
  <rect x="0" y="20" width="4" height="4" opacity="0.587"/>
  <rect x="5" y="20" width="4" height="4" opacity="0.58"/>
  <rect x="0" y="25" width="4" height="4" opacity="0.483"/>
  <rect x="5" y="25" width="4" height="4" opacity="0.476"/>
  <rect x="0" y="30" width="4" height="4" opacity="0.38"/>
  <rect x="5" y="30" width="4" height="4" opacity="0.373"/>
  <rect x="15" y="0" width="4" height="4" opacity="0.979"/>
  <rect x="20" y="0" width="4" height="4" opacity="0.972"/>
  <rect x="50" y="0" width="4" height="4" opacity="0.93"/>
  <rect x="55" y="0" width="4" height="4" opacity="0.923"/>
  <rect x="15" y="5" width="4" height="4" opacity="0.876"/>
  <rect x="20" y="5" width="4" height="4" opacity="0.869"/>
  <rect x="25" y="5" width="4" height="4" opacity="0.862"/>
  <rect x="45" y="5" width="4" height="4" opacity="0.834"/>
  <rect x="50" y="5" width="4" height="4" opacity="0.827"/>
  <rect x="55" y="5" width="4" height="4" opacity="0.82"/>
  <rect x="15" y="10" width="4" height="4" opacity="0.772"/>
  <rect x="20" y="10" width="4" height="4" opacity="0.765"/>
  <rect x="25" y="10" width="4" height="4" opacity="0.758"/>
  <rect x="30" y="10" width="4" height="4" opacity="0.751"/>
  <rect x="40" y="10" width="4" height="4" opacity="0.738"/>
  <rect x="45" y="10" width="4" height="4" opacity="0.731"/>
  <rect x="50" y="10" width="4" height="4" opacity="0.724"/>
  <rect x="55" y="10" width="4" height="4" opacity="0.717"/>
  <rect x="15" y="15" width="4" height="4" opacity="0.669"/>
  <rect x="20" y="15" width="4" height="4" opacity="0.662"/>
  <rect x="30" y="15" width="4" height="4" opacity="0.648"/>
  <rect x="35" y="15" width="4" height="4" opacity="0.641"/>
  <rect x="40" y="15" width="4" height="4" opacity="0.634"/>
  <rect x="50" y="15" width="4" height="4" opacity="0.62"/>
  <rect x="55" y="15" width="4" height="4" opacity="0.613"/>
  <rect x="15" y="20" width="4" height="4" opacity="0.566"/>
  <rect x="20" y="20" width="4" height="4" opacity="0.559"/>
  <rect x="35" y="20" width="4" height="4" opacity="0.538"/>
  <rect x="50" y="20" width="4" height="4" opacity="0.517"/>
  <rect x="55" y="20" width="4" height="4" opacity="0.51"/>
  <rect x="15" y="25" width="4" height="4" opacity="0.462"/>
  <rect x="20" y="25" width="4" height="4" opacity="0.455"/>
  <rect x="50" y="25" width="4" height="4" opacity="0.414"/>
  <rect x="55" y="25" width="4" height="4" opacity="0.407"/>
  <rect x="15" y="30" width="4" height="4" opacity="0.359"/>
  <rect x="20" y="30" width="4" height="4" opacity="0.352"/>
  <rect x="50" y="30" width="4" height="4" opacity="0.31"/>
  <rect x="55" y="30" width="4" height="4" opacity="0.303"/>
  <rect x="65" y="0" width="4" height="4" opacity="0.909"/>
  <rect x="70" y="0" width="4" height="4" opacity="0.902"/>
  <rect x="75" y="0" width="4" height="4" opacity="0.895"/>
  <rect x="80" y="0" width="4" height="4" opacity="0.888"/>
  <rect x="65" y="5" width="4" height="4" opacity="0.806"/>
  <rect x="70" y="5" width="4" height="4" opacity="0.799"/>
  <rect x="80" y="5" width="4" height="4" opacity="0.785"/>
  <rect x="85" y="5" width="4" height="4" opacity="0.778"/>
  <rect x="65" y="10" width="4" height="4" opacity="0.703"/>
  <rect x="70" y="10" width="4" height="4" opacity="0.696"/>
  <rect x="80" y="10" width="4" height="4" opacity="0.682"/>
  <rect x="85" y="10" width="4" height="4" opacity="0.675"/>
  <rect x="65" y="15" width="4" height="4" opacity="0.599"/>
  <rect x="70" y="15" width="4" height="4" opacity="0.592"/>
  <rect x="80" y="15" width="4" height="4" opacity="0.578"/>
  <rect x="85" y="15" width="4" height="4" opacity="0.571"/>
  <rect x="65" y="20" width="4" height="4" opacity="0.496"/>
  <rect x="70" y="20" width="4" height="4" opacity="0.489"/>
  <rect x="80" y="20" width="4" height="4" opacity="0.475"/>
  <rect x="85" y="20" width="4" height="4" opacity="0.468"/>
  <rect x="65" y="25" width="4" height="4" opacity="0.393"/>
  <rect x="70" y="25" width="4" height="4" opacity="0.386"/>
  <rect x="80" y="25" width="4" height="4" opacity="0.372"/>
  <rect x="85" y="25" width="4" height="4" opacity="0.365"/>
  <rect x="65" y="30" width="4" height="4" opacity="0.289"/>
  <rect x="70" y="30" width="4" height="4" opacity="0.282"/>
  <rect x="75" y="30" width="4" height="4" opacity="0.275"/>
  <rect x="80" y="30" width="4" height="4" opacity="0.268"/>
  <rect x="95" y="0" width="4" height="4" opacity="0.86"/>
  <rect x="100" y="0" width="4" height="4" opacity="0.853"/>
  <rect x="95" y="5" width="4" height="4" opacity="0.757"/>
  <rect x="100" y="5" width="4" height="4" opacity="0.75"/>
  <rect x="95" y="10" width="4" height="4" opacity="0.654"/>
  <rect x="100" y="10" width="4" height="4" opacity="0.647"/>
  <rect x="95" y="15" width="4" height="4" opacity="0.55"/>
  <rect x="100" y="15" width="4" height="4" opacity="0.543"/>
  <rect x="95" y="20" width="4" height="4" opacity="0.447"/>
  <rect x="100" y="20" width="4" height="4" opacity="0.44"/>
  <rect x="95" y="25" width="4" height="4" opacity="0.344"/>
  <rect x="100" y="25" width="4" height="4" opacity="0.337"/>
  <rect x="95" y="30" width="4" height="4" opacity="0.24"/>
  <rect x="100" y="30" width="4" height="4" opacity="0.233"/>
  <rect x="110" y="0" width="4" height="4" opacity="0.84"/>
  <rect x="115" y="0" width="4" height="4" opacity="0.833"/>
  <rect x="120" y="0" width="4" height="4" opacity="0.826"/>
  <rect x="125" y="0" width="4" height="4" opacity="0.819"/>
  <rect x="115" y="5" width="4" height="4" opacity="0.729"/>
  <rect x="120" y="5" width="4" height="4" opacity="0.722"/>
  <rect x="115" y="10" width="4" height="4" opacity="0.626"/>
  <rect x="120" y="10" width="4" height="4" opacity="0.619"/>
  <rect x="115" y="15" width="4" height="4" opacity="0.523"/>
  <rect x="120" y="15" width="4" height="4" opacity="0.516"/>
  <rect x="115" y="20" width="4" height="4" opacity="0.419"/>
  <rect x="120" y="20" width="4" height="4" opacity="0.412"/>
  <rect x="115" y="25" width="4" height="4" opacity="0.316"/>
  <rect x="120" y="25" width="4" height="4" opacity="0.309"/>
  <rect x="115" y="30" width="4" height="4" opacity="0.213"/>
  <rect x="120" y="30" width="4" height="4" opacity="0.206"/>
  <rect x="135" y="0" width="4" height="4" opacity="0.805"/>
  <rect x="140" y="0" width="4" height="4" opacity="0.798"/>
  <rect x="150" y="0" width="4" height="4" opacity="0.784"/>
  <rect x="155" y="0" width="4" height="4" opacity="0.777"/>
  <rect x="135" y="5" width="4" height="4" opacity="0.701"/>
  <rect x="140" y="5" width="4" height="4" opacity="0.694"/>
  <rect x="150" y="5" width="4" height="4" opacity="0.68"/>
  <rect x="155" y="5" width="4" height="4" opacity="0.673"/>
  <rect x="135" y="10" width="4" height="4" opacity="0.598"/>
  <rect x="140" y="10" width="4" height="4" opacity="0.591"/>
  <rect x="150" y="10" width="4" height="4" opacity="0.577"/>
  <rect x="155" y="10" width="4" height="4" opacity="0.57"/>
  <rect x="135" y="15" width="4" height="4" opacity="0.495"/>
  <rect x="140" y="15" width="4" height="4" opacity="0.488"/>
  <rect x="145" y="15" width="4" height="4" opacity="0.481"/>
  <rect x="150" y="15" width="4" height="4" opacity="0.474"/>
  <rect x="155" y="15" width="4" height="4" opacity="0.467"/>
  <rect x="135" y="20" width="4" height="4" opacity="0.391"/>
  <rect x="140" y="20" width="4" height="4" opacity="0.384"/>
  <rect x="150" y="20" width="4" height="4" opacity="0.37"/>
  <rect x="155" y="20" width="4" height="4" opacity="0.363"/>
  <rect x="135" y="25" width="4" height="4" opacity="0.288"/>
  <rect x="140" y="25" width="4" height="4" opacity="0.281"/>
  <rect x="150" y="25" width="4" height="4" opacity="0.267"/>
  <rect x="155" y="25" width="4" height="4" opacity="0.26"/>
  <rect x="135" y="30" width="4" height="4" opacity="0.185"/>
  <rect x="140" y="30" width="4" height="4" opacity="0.178"/>
  <rect x="150" y="30" width="4" height="4" opacity="0.164"/>
  <rect x="155" y="30" width="4" height="4" opacity="0.16"/>
  <rect x="165" y="0" width="4" height="4" opacity="0.763"/>
  <rect x="170" y="0" width="4" height="4" opacity="0.756"/>
  <rect x="175" y="0" width="4" height="4" opacity="0.749"/>
  <rect x="180" y="0" width="4" height="4" opacity="0.742"/>
  <rect x="165" y="5" width="4" height="4" opacity="0.659"/>
  <rect x="170" y="5" width="4" height="4" opacity="0.652"/>
  <rect x="165" y="10" width="4" height="4" opacity="0.556"/>
  <rect x="170" y="10" width="4" height="4" opacity="0.549"/>
  <rect x="165" y="15" width="4" height="4" opacity="0.453"/>
  <rect x="170" y="15" width="4" height="4" opacity="0.446"/>
  <rect x="175" y="15" width="4" height="4" opacity="0.439"/>
  <rect x="180" y="15" width="4" height="4" opacity="0.432"/>
  <rect x="165" y="20" width="4" height="4" opacity="0.349"/>
  <rect x="170" y="20" width="4" height="4" opacity="0.342"/>
  <rect x="165" y="25" width="4" height="4" opacity="0.246"/>
  <rect x="170" y="25" width="4" height="4" opacity="0.239"/>
  <rect x="165" y="30" width="4" height="4" opacity="0.16"/>
  <rect x="170" y="30" width="4" height="4" opacity="0.16"/>
  <rect x="175" y="30" width="4" height="4" opacity="0.16"/>
  <rect x="180" y="30" width="4" height="4" opacity="0.16"/>
  <rect x="190" y="0" width="4" height="4" opacity="0.728"/>
  <rect x="195" y="0" width="4" height="4" opacity="0.721"/>
  <rect x="200" y="0" width="4" height="4" opacity="0.714"/>
  <rect x="205" y="0" width="4" height="4" opacity="0.707"/>
  <rect x="190" y="5" width="4" height="4" opacity="0.625"/>
  <rect x="195" y="5" width="4" height="4" opacity="0.618"/>
  <rect x="205" y="5" width="4" height="4" opacity="0.604"/>
  <rect x="210" y="5" width="4" height="4" opacity="0.597"/>
  <rect x="190" y="10" width="4" height="4" opacity="0.521"/>
  <rect x="195" y="10" width="4" height="4" opacity="0.514"/>
  <rect x="205" y="10" width="4" height="4" opacity="0.5"/>
  <rect x="210" y="10" width="4" height="4" opacity="0.493"/>
  <rect x="190" y="15" width="4" height="4" opacity="0.418"/>
  <rect x="195" y="15" width="4" height="4" opacity="0.411"/>
  <rect x="200" y="15" width="4" height="4" opacity="0.404"/>
  <rect x="205" y="15" width="4" height="4" opacity="0.397"/>
  <rect x="190" y="20" width="4" height="4" opacity="0.315"/>
  <rect x="195" y="20" width="4" height="4" opacity="0.308"/>
  <rect x="200" y="20" width="4" height="4" opacity="0.301"/>
  <rect x="190" y="25" width="4" height="4" opacity="0.211"/>
  <rect x="195" y="25" width="4" height="4" opacity="0.204"/>
  <rect x="205" y="25" width="4" height="4" opacity="0.19"/>
  <rect x="210" y="25" width="4" height="4" opacity="0.183"/>
  <rect x="190" y="30" width="4" height="4" opacity="0.16"/>
  <rect x="195" y="30" width="4" height="4" opacity="0.16"/>
  <rect x="205" y="30" width="4" height="4" opacity="0.16"/>
  <rect x="210" y="30" width="4" height="4" opacity="0.16"/>
</svg>
